<svg xmlns="http://www.w3.org/2000/svg" xmlns:xlink="http://www.w3.org/1999/xlink" id="Layer_1" x="0" y="0" version="1.1" viewBox="0 0 1000 1000" xml:space="preserve" style="enable-background:new 0 0 1000 1000"><style type="text/css">.st0{fill:#3882f1}.st1{fill:#367de8}.st2{fill:#3479df}.st3{fill:#3274d6}.st4{fill:#306fcd}.st5{fill:#2f6bc4}.st6{fill:#2d66bb}.st7{fill:#2b61b2}.st8{fill:#295da9}.st9{fill:#2758a0}</style><g id="Layer_12"><rect width="1000" height="1000" class="st0"/></g><g id="Layer_11"><polygon points="1000 253.8 758.1 0 0 0 0 1000 1000 1000" class="st1"/></g><g id="Layer_10"><polygon points="1000 448.2 531.5 0 0 0 0 1000 1000 1000" class="st2"/></g><g id="Layer_9"><polygon points="1000 604.4 284.2 0 0 0 0 1000 1000 1000" class="st3"/></g><g id="Layer_8"><polygon points="1000 739.7 8.7 0 0 0 0 1000 1000 1000" class="st4"/></g><g id="Layer_7"><polygon points="1000 853.5 0 199 0 1000 1000 1000" class="st5"/></g><g id="Layer_6"><polygon points="1000 953.1 0 386.3 0 1000 1000 1000" class="st6"/></g><g><polygon points="0 560 0 1000 905.7 1000" class="st7"/></g><g id="Layer_3"><path d="M0,740.7V1000h721.8C545.3,935.9,218,817.4,0,740.7z" class="st8"/></g><g id="Layer_4"><polygon points="0 908.3 0 1000 423.5 1000" class="st9"/></g></svg>